<svg width="33" height="33" viewBox="0 0 33 33" fill="none" xmlns="http://www.w3.org/2000/svg">
<path fill-rule="evenodd" clip-rule="evenodd" d="M22.1667 4.64087H11.3333C7.59391 4.64087 4.5625 7.67228 4.5625 11.4117V22.245C4.5625 25.9844 7.59391 29.0159 11.3333 29.0159H22.1667C25.9061 29.0159 28.9375 25.9844 28.9375 22.245V11.4117C28.9375 7.67228 25.9061 4.64087 22.1667 4.64087ZM26.5677 22.245C26.5603 24.6725 24.5941 26.6386 22.1667 26.6461H11.3333C8.90579 26.6386 6.93973 24.6725 6.93229 22.245V11.4117C6.93973 8.98416 8.90579 7.0181 11.3333 7.01066H22.1667C24.5941 7.0181 26.5603 8.98416 26.5677 11.4117V22.245ZM23.1823 11.7502C23.9302 11.7502 24.5365 11.144 24.5365 10.3961C24.5365 9.6482 23.9302 9.04191 23.1823 9.04191C22.4344 9.04191 21.8281 9.6482 21.8281 10.3961C21.8281 11.144 22.4344 11.7502 23.1823 11.7502ZM16.75 10.7346C13.3845 10.7346 10.6562 13.4629 10.6562 16.8284C10.6562 20.1939 13.3845 22.9221 16.75 22.9221C20.1155 22.9221 22.8438 20.1939 22.8438 16.8284C22.8474 15.2111 22.2065 13.659 21.0629 12.5155C19.9193 11.3719 18.3673 10.731 16.75 10.7346ZM13.026 16.8284C13.026 18.8851 14.6933 20.5523 16.75 20.5523C18.8067 20.5523 20.474 18.8851 20.474 16.8284C20.474 14.7717 18.8067 13.1044 16.75 13.1044C14.6933 13.1044 13.026 14.7717 13.026 16.8284Z" fill="white"/>
</svg>
