<svg width="33" height="33" viewBox="0 0 33 33" fill="none" xmlns="http://www.w3.org/2000/svg">
<path d="M29.2404 10.0039C29.0861 9.4316 28.7847 8.90971 28.3661 8.49014C27.9474 8.07057 27.4262 7.76795 26.8543 7.61241C24.7337 7.03012 16.2498 7.02064 16.2498 7.02064C16.2498 7.02064 7.76734 7.01116 5.64536 7.56772C5.0738 7.73042 4.55366 8.03732 4.13487 8.45895C3.71609 8.88058 3.41272 9.40278 3.2539 9.97543C2.69463 12.0961 2.68921 16.4944 2.68921 16.4944C2.68921 16.4944 2.68379 20.9144 3.239 23.0133C3.55046 24.1739 4.46452 25.0906 5.6264 25.4035C7.76869 25.9857 16.2295 25.9952 16.2295 25.9952C16.2295 25.9952 24.7134 26.0047 26.834 25.4495C27.4061 25.2942 27.9278 24.9923 28.3475 24.5736C28.7672 24.1549 29.0703 23.6339 29.2268 23.0621C29.7874 20.9428 29.7915 16.5458 29.7915 16.5458C29.7915 16.5458 29.8186 12.1245 29.2404 10.0039ZM13.5361 20.5691L13.5429 12.4441L20.594 16.5133L13.5361 20.5691Z" fill="white"/>
</svg>
