<svg width="135" height="163" viewBox="0 0 135 163" fill="none" xmlns="http://www.w3.org/2000/svg">
<path d="M134.968 77H0V118.126H134.968V77Z" fill="#FF2E63"/>
<path d="M15.0751 92.1604C15.0751 90.2859 15.0269 88.847 14.9757 88.079C14.7799 86.5429 13.7468 85.5336 12.3221 85.5336C11.045 85.5336 10.1595 86.3016 9.81614 87.6464C9.66855 88.2702 9.56915 89.8092 9.56915 92.4988V102.683C9.56915 105.758 9.66855 107.103 9.91252 107.774C10.3071 108.927 11.1896 109.598 12.3221 109.598C13.7468 109.598 14.7799 108.542 14.9275 106.909C15.0269 106.044 15.0751 103.69 15.0751 102.251H20.0419V104.075C20.0419 107.388 19.8461 108.639 18.9124 110.319C17.6835 112.673 15.2739 114.065 12.3733 114.065C10.0631 114.065 7.9487 113.153 6.6204 111.52C4.99693 109.598 4.65356 108.012 4.65356 103.019V92.1633C4.65356 87.1197 4.99693 85.5336 6.6204 83.6121C7.9487 81.9789 10.0631 81.0667 12.3733 81.0667C15.2257 81.0667 17.6835 82.3644 18.9124 84.5743C19.7979 86.1604 20.0419 87.3109 20.0419 90.4331V92.1633H15.0751V92.1604Z" fill="white"/>
<path d="M27.5629 113.583H22.6473V81.5434H29.5298C35.2345 81.5434 37.7405 84.4242 37.7405 90.8126C37.7405 94.9441 36.855 97.154 34.4454 98.8813L38.2315 113.58H33.0207L29.9243 100.179H27.5629V113.58V113.583ZM29.1352 95.715C30.8069 95.715 31.4454 95.4737 31.9876 94.7057C32.4785 93.9377 32.8219 92.4958 32.8219 90.8627C32.8219 89.1324 32.4785 87.5964 31.84 86.8754C31.349 86.2016 30.7105 86.0103 29.1352 86.0103H27.5629V95.7121H29.1352V95.715Z" fill="white"/>
<path d="M54.1619 86.0103H45.7042V94.7528H51.8005V99.2197H45.7042V109.116H54.1619V113.583H40.7886V81.5434H54.1619V86.0103Z" fill="white"/>
<path d="M62.3726 106.52L61.2431 113.583H56.3757L61.7341 81.5434H68.1256L73.8303 113.583H68.7671L67.6376 106.52H62.3757H62.3726ZM64.9298 89.2766L63.0624 102.053H66.8967L64.9298 89.2766Z" fill="white"/>
<path d="M83.0712 113.583H78.1556V86.0103H72.9448V81.5434H88.3814V86.0103H83.0712V113.583Z" fill="white"/>
<path d="M95.3602 113.583H90.4446V81.5434H95.3602V113.583Z" fill="white"/>
<path d="M103.917 113.583L97.6251 81.5434H102.64L106.426 102.053L109.77 81.5434H114.637L109.032 113.583H103.917Z" fill="white"/>
<path d="M130.317 86.0103H121.86V94.7528H127.956V99.2197H121.86V109.116H130.317V113.583H116.944V81.5434H130.317V86.0103Z" fill="white"/>
<path d="M67 0C45.8979 0 28.7877 16.716 28.7877 37.3319C28.7877 57.9478 45.8979 74.6638 67 74.6638C88.102 74.6638 105.212 57.9478 105.212 37.3319C105.212 16.716 88.102 0 67 0Z" fill="#03007F"/>
<path d="M55.7846 22.5177H54.5105C52.0935 22.5177 50.7702 23.8479 50.7702 26.5137V39.3619C50.7702 42.6688 49.6273 43.8281 46.9424 43.8281C44.8316 43.8281 43.1146 42.9253 41.753 41.2905C41.6218 41.1196 38.8494 42.4071 38.8494 45.5857C38.8494 49.0208 42.1467 51.1257 48.2602 51.1257C55.6916 51.1257 59.6069 47.4715 59.6069 39.4848V26.5084C59.6069 23.8426 58.289 22.5124 55.7791 22.5124L55.7846 22.5177ZM67.2953 29.0033H66.4149C64.2604 29.0033 62.6308 29.9916 62.6308 32.9993V46.745C62.6308 49.7954 64.2166 50.741 66.5024 50.741H67.3828C69.5373 50.741 71.0738 49.71 71.0738 46.745V32.9993C71.0738 29.9061 69.581 29.0033 67.2898 29.0033H67.2953ZM66.8141 19.0345C64.0854 19.0345 62.3738 20.5357 62.3738 22.9024C62.3738 25.269 64.1346 26.8129 66.9453 26.8129C69.756 26.8129 71.3855 25.3117 71.3855 22.9024C71.3855 20.493 69.6248 19.0345 66.8141 19.0345ZM85.4007 28.7842C78.1881 28.7842 73.3924 33.2504 73.3924 39.9122C73.3924 46.574 78.0076 51.1257 85.264 51.1257C92.5204 51.1257 97.2286 46.745 97.2286 39.9549C97.2286 33.1649 92.5204 28.7842 85.4007 28.7842ZM85.3132 44.8111C82.4971 44.8111 80.5613 42.7917 80.5613 39.9122C80.5613 37.0327 82.5408 35.0561 85.3132 35.0561C88.0856 35.0561 90.0597 37.0754 90.0597 39.9549C90.0597 42.8344 88.0364 44.8111 85.3132 44.8111Z" fill="white"/>
<path d="M106.77 121H28V162.126H106.77V121Z" fill="#00C0CC"/>
<path d="M45.6263 157.997H32.2108V125.137H37.2529V153.419H45.6233V158L45.6263 157.997Z" fill="white"/>
<path d="M53.5931 150.756L52.4335 157.997H47.4396L52.9365 125.134H59.4936L65.3429 157.997H60.1472L58.9876 150.756H53.5901H53.5931ZM56.2165 133.068L54.3009 146.174H58.2346L56.2165 133.068Z" fill="white"/>
<path d="M67.8639 125.137H74.8728C80.4209 125.137 83.2432 127.995 83.2432 133.662C83.2432 137.111 82.2342 139.28 79.7131 141.004C82.6378 142.434 83.8486 144.847 83.8486 149.181C83.8486 152.483 83.0414 154.846 81.3788 156.376C80.0173 157.609 78.6047 158 75.3276 158H67.8639V125.137ZM73.9662 138.735C75.5294 138.735 76.2342 138.538 76.9421 137.897C77.8487 137.058 78.3035 135.728 78.3035 133.856C78.3035 131.049 77.1951 129.719 74.8246 129.719H72.909V138.735H73.9692H73.9662ZM74.7734 153.419C77.5987 153.419 78.8065 152.039 78.8065 148.64C78.8065 146.521 78.2523 144.897 77.1921 144.058C76.5354 143.517 75.7282 143.32 74.165 143.32H72.903V153.419H74.7704H74.7734Z" fill="white"/>
<path d="M97.3153 133.218C97.0141 130.26 96.2551 129.228 94.3906 129.228C92.6768 129.228 91.5654 130.508 91.5654 132.479C91.5654 134.745 92.472 136.075 96.0532 139.327C101.297 144.008 102.559 146.077 102.559 150.067C102.559 155.093 99.3303 158.492 94.5924 158.492C89.8545 158.492 86.3726 154.993 86.222 149.623L91.0142 148.784C91.1648 152.233 92.3244 153.907 94.5954 153.907C96.4629 153.907 97.6707 152.527 97.6707 150.311C97.6707 149.078 97.2159 147.898 96.3605 146.766C95.5532 145.73 95.252 145.385 92.4268 142.872C88.1919 139.029 86.6769 136.419 86.6769 132.773C86.6769 127.895 89.8545 124.643 94.5954 124.643C99.0321 124.643 101.604 127.303 102.21 132.526L97.3183 133.215L97.3153 133.218Z" fill="white"/>
</svg>
