<svg width="37" height="31" viewBox="0 0 37 31" fill="none" xmlns="http://www.w3.org/2000/svg">
<path d="M33.1667 8.1668L18.5001 17.3335L3.83341 8.1668V4.50013L18.5001 13.6668L33.1667 4.50013M33.1667 0.833466H3.83341C1.79841 0.833466 0.166748 2.46513 0.166748 4.50013V26.5001C0.166748 27.4726 0.553056 28.4052 1.24069 29.0929C1.92832 29.7805 2.86095 30.1668 3.83341 30.1668H33.1667C34.1392 30.1668 35.0718 29.7805 35.7595 29.0929C36.4471 28.4052 36.8334 27.4726 36.8334 26.5001V4.50013C36.8334 3.52767 36.4471 2.59504 35.7595 1.90741C35.0718 1.21977 34.1392 0.833466 33.1667 0.833466Z" fill="#424242"/>
</svg>
