<svg width="27" height="37" viewBox="0 0 27 37" fill="none" xmlns="http://www.w3.org/2000/svg">
<path d="M13.3333 17.5834C12.1178 17.5834 10.952 17.1005 10.0924 16.241C9.23289 15.3815 8.75 14.2157 8.75 13.0001C8.75 11.7845 9.23289 10.6187 10.0924 9.75919C10.952 8.89965 12.1178 8.41676 13.3333 8.41676C14.5489 8.41676 15.7147 8.89965 16.5742 9.75919C17.4338 10.6187 17.9167 11.7845 17.9167 13.0001C17.9167 13.602 17.7981 14.198 17.5678 14.7541C17.3374 15.3101 16.9998 15.8154 16.5742 16.241C16.1486 16.6666 15.6434 17.0042 15.0873 17.2345C14.5312 17.4649 13.9352 17.5834 13.3333 17.5834ZM13.3333 0.166763C9.92972 0.166763 6.66551 1.51884 4.2588 3.92556C1.85208 6.33228 0.5 9.59649 0.5 13.0001C0.5 22.6251 13.3333 36.8334 13.3333 36.8334C13.3333 36.8334 26.1667 22.6251 26.1667 13.0001C26.1667 9.59649 24.8146 6.33228 22.4079 3.92556C20.0012 1.51884 16.7369 0.166763 13.3333 0.166763Z" fill="#424242"/>
</svg>
