<svg width="33" height="33" viewBox="0 0 33 33" fill="none" xmlns="http://www.w3.org/2000/svg">
<path d="M25.8996 32.2568C24.5051 32.2568 22.5461 31.7524 19.6126 30.1135C16.0455 28.1131 13.2863 26.2663 9.73847 22.7277C6.31777 19.3092 4.65314 17.0958 2.32338 12.8564C-0.308585 8.06971 0.140078 5.56062 0.641609 4.48826C1.23887 3.20657 2.12048 2.43999 3.26 1.67912C3.90724 1.25506 4.59218 0.891539 5.30613 0.59318C5.37758 0.562459 5.44402 0.533168 5.50332 0.506734C5.85696 0.347415 6.39279 0.106652 7.0715 0.363847C7.52444 0.533882 7.92881 0.88181 8.5618 1.50694C9.85992 2.7872 11.6339 5.6385 12.2883 7.03878C12.7277 7.98255 13.0184 8.60553 13.0191 9.30425C13.0191 10.1223 12.6076 10.7531 12.1082 11.434C12.0146 11.5619 11.9218 11.684 11.8318 11.8026C11.2881 12.517 11.1688 12.7235 11.2473 13.0922C11.4067 13.833 12.5948 16.0385 14.5473 17.9867C16.4999 19.935 18.6417 21.0481 19.3854 21.2067C19.7698 21.2888 19.9806 21.1645 20.7179 20.6016C20.8236 20.5208 20.9322 20.4372 21.0458 20.3537C21.8074 19.7871 22.4089 19.3863 23.2077 19.3863H23.2119C23.9071 19.3863 24.5022 19.6878 25.4881 20.185C26.7741 20.8337 29.7111 22.5848 30.9992 23.8844C31.6258 24.5159 31.9752 24.9189 32.1459 25.3711C32.4031 26.052 32.1609 26.5856 32.003 26.9429C31.9766 27.0022 31.9473 27.0672 31.9166 27.1393C31.6159 27.852 31.2502 28.5355 30.8242 29.1812C30.0648 30.3171 29.2953 31.1966 28.0108 31.7946C27.3512 32.1066 26.6293 32.2646 25.8996 32.2568Z" fill="#424242"/>
</svg>
