<svg width="21" height="21" viewBox="0 0 21 21" fill="none" xmlns="http://www.w3.org/2000/svg">
<path d="M11.3335 4.23612C11.3335 3.77588 10.9604 3.40279 10.5002 3.40279C10.0399 3.40279 9.66683 3.77588 9.66683 4.23612V9.23612H4.66683C4.20659 9.23612 3.8335 9.60922 3.8335 10.0695C3.8335 10.5297 4.20659 10.9028 4.66683 10.9028H9.66683V15.9028C9.66683 16.363 10.0399 16.7361 10.5002 16.7361C10.9604 16.7361 11.3335 16.363 11.3335 15.9028V10.9028H16.3335C16.7937 10.9028 17.1668 10.5297 17.1668 10.0695C17.1668 9.60922 16.7937 9.23612 16.3335 9.23612H11.3335V4.23612Z" fill="white"/>
</svg>
