<svg width="25" height="25" viewBox="0 0 25 25" fill="none" xmlns="http://www.w3.org/2000/svg">
<path d="M12.5002 12.0695V21.0695M12.5002 12.0695L10.0002 14.0695M12.5002 12.0695L15.0002 14.0695M5.53421 9.18646C4.58842 9.42445 3.76208 9.99962 3.21046 10.8039C2.65883 11.6082 2.41989 12.5862 2.53851 13.5542C2.65714 14.5223 3.12517 15.4137 3.85467 16.061C4.58417 16.7083 5.52494 17.0669 6.50021 17.0695H7.50021" stroke="#191D23" stroke-width="2" stroke-linecap="round" stroke-linejoin="round"/>
<path d="M16.3302 7.20745C15.9884 5.85402 15.1447 4.68119 13.9703 3.92671C12.7958 3.17222 11.3784 2.89254 10.0054 3.14435C8.6324 3.39617 7.4065 4.16064 6.57622 5.28279C5.74595 6.40494 5.37342 7.80082 5.53416 9.18745C5.53416 9.18745 5.68716 10.0695 6.00016 10.5695" stroke="#191D23" stroke-width="2" stroke-linecap="round" stroke-linejoin="round"/>
<path d="M17.5 17.0695C18.206 17.069 18.904 16.919 19.5479 16.6293C20.1917 16.3397 20.767 15.9169 21.2357 15.3889C21.7045 14.8609 22.0561 14.2397 22.2674 13.566C22.4787 12.8923 22.545 12.1815 22.4618 11.4804C22.3786 10.7793 22.1479 10.1037 21.7848 9.4982C21.4217 8.89267 20.9345 8.37091 20.3552 7.96724C19.776 7.56358 19.1178 7.28717 18.424 7.15622C17.7302 7.02526 17.0166 7.04272 16.33 7.20746L15 7.56946" stroke="#191D23" stroke-width="2" stroke-linecap="round" stroke-linejoin="round"/>
</svg>
